<?xml version="1.0" encoding="UTF-8" standalone="no"?>
<svg
   width="287.56"
   height="191"
   version="1.1"
   id="svg24"
   xmlns="http://www.w3.org/2000/svg"
   xmlns:svg="http://www.w3.org/2000/svg">
  <desc
     id="desc2">Logo of Meta Platforms -- Graphic created by Detmar Owen</desc>
  <defs
     id="defs18">
    <linearGradient
       id="Grad_Logo1"
       x1="61"
       y1="117"
       x2="259"
       y2="127"
       gradientUnits="userSpaceOnUse">
      <stop
         style="stop-color:#0064e1"
         offset="0"
         id="stop4" />
      <stop
         style="stop-color:#0064e1"
         offset="0.4"
         id="stop6" />
      <stop
         style="stop-color:#0073ee"
         offset="0.83"
         id="stop8" />
      <stop
         style="stop-color:#0082fb"
         offset="1"
         id="stop10" />
    </linearGradient>
    <linearGradient
       id="Grad_Logo2"
       x1="45"
       y1="139"
       x2="45"
       y2="66"
       gradientUnits="userSpaceOnUse">
      <stop
         style="stop-color:#0082fb"
         offset="0"
         id="stop13" />
      <stop
         style="stop-color:#0064e0"
         offset="1"
         id="stop15" />
    </linearGradient>
  </defs>
  <path
     id="Logo0"
     style="fill:#0081fb"
     d="m 31.06,125.96 c 0,10.98 2.41,19.41 5.56,24.51 4.13,6.68 10.29,9.51 16.57,9.51 8.1,0 15.51,-2.01 29.79,-21.76 11.44,-15.83 24.92,-38.05 33.99,-51.98 l 15.36,-23.6 C 143,46.25 155.35,28.03 169.51,15.68 181.07,5.6 193.54,0 206.09,0 c 21.07,0 41.14,12.21 56.5,35.11 16.81,25.08 24.97,56.67 24.97,89.27 0,19.38 -3.82,33.62 -10.32,44.87 -6.28,10.88 -18.52,21.75 -39.11,21.75 v -31.02 c 17.63,0 22.03,-16.2 22.03,-34.74 0,-26.42 -6.16,-55.74 -19.73,-76.69 -9.63,-14.86 -22.11,-23.94 -35.84,-23.94 -14.85,0 -26.8,11.2 -40.23,31.17 -7.14,10.61 -14.47,23.54 -22.7,38.13 l -9.06,16.05 c -18.2,32.27 -22.81,39.62 -31.91,51.75 C 84.74,182.95 71.12,191 53.19,191 31.92,191 18.47,181.79 10.14,167.91 3.34,156.6 0,141.76 0,124.85 Z" />
  <path
     id="Logo1"
     style="fill:url(#Grad_Logo1)"
     d="M 24.49,37.3 C 38.73,15.35 59.28,0 82.85,0 c 13.65,0 27.22,4.04 41.39,15.61 15.5,12.65 32.02,33.48 52.63,67.81 l 7.39,12.32 c 17.84,29.72 27.99,45.01 33.93,52.22 7.64,9.26 12.99,12.02 19.94,12.02 17.63,0 22.03,-16.2 22.03,-34.74 l 27.4,-0.86 c 0,19.38 -3.82,33.62 -10.32,44.87 -6.28,10.88 -18.52,21.75 -39.11,21.75 -12.8,0 -24.14,-2.78 -36.68,-14.61 -9.64,-9.08 -20.91,-25.21 -29.58,-39.71 L 146.08,93.6 C 133.14,71.98 121.27,55.86 114.4,48.56 107.01,40.71 97.51,31.23 82.35,31.23 c -12.27,0 -22.69,8.61 -31.41,21.78 z" />
  <path
     id="Logo2"
     style="fill:url(#Grad_Logo2)"
     d="m 82.35,31.23 c -12.27,0 -22.69,8.61 -31.41,21.78 -12.33,18.61 -19.88,46.33 -19.88,72.95 0,10.98 2.41,19.41 5.56,24.51 L 10.14,167.91 C 3.34,156.6 0,141.76 0,124.85 0,94.1 8.44,62.05 24.49,37.3 38.73,15.35 59.28,0 82.85,0 Z" />
</svg>
